P2
# Imagem segmentada com k=20
10 10
255
0 12 24 36 48 60 72 84 96 108 120 132 144 156 168 180 192 204 216 228 0 12 24 36 48 60 72 84 96 108 120 132 144 156 168 180 192 204 216 228 0 12 24 36 48 60 72 84 96 108 120 132 144 156 168 180 192 204 216 228 0 12 24 36 48 60 72 84 96 108 120 132 144 156 168 180 192 204 216 228 0 12 24 36 48 60 72 84 96 108 120 132 144 156 168 180 192 204 216 228 