P2
# Imagem segmentada com k=10
10 10
255
0 25 50 75 100 125 150 175 200 225 0 25 50 75 100 125 150 175 200 225 0 25 50 75 100 125 150 175 200 225 0 25 50 75 100 125 150 175 200 225 0 25 50 75 100 125 150 175 200 225 0 25 50 75 100 125 150 175 200 225 0 25 50 75 100 125 150 175 200 225 0 25 50 75 100 125 150 175 200 225 0 25 50 75 100 125 150 175 200 225 0 25 50 75 100 125 150 175 200 225 