P2
# Imagem segmentada com k=5
10 10
255
0 51 102 153 204 0 51 102 153 204 0 51 102 153 204 0 51 102 153 204 0 51 102 153 204 0 51 102 153 204 0 51 102 153 204 0 51 102 153 204 0 51 102 153 204 0 51 102 153 204 0 51 102 153 204 0 51 102 153 204 0 51 102 153 204 0 51 102 153 204 0 51 102 153 204 0 51 102 153 204 0 51 102 153 204 0 51 102 153 204 0 51 102 153 204 0 51 102 153 204 