P2
# Imagem segmentada com k=3
10 10
255
0 85 170 0 85 170 0 85 170 0 85 170 0 85 170 0 85 170 0 85 170 0 85 170 0 85 170 0 85 170 0 85 170 0 85 170 0 85 170 0 85 170 0 85 170 0 85 170 0 85 170 0 85 170 0 85 170 0 85 170 0 85 170 0 85 170 0 85 170 0 85 170 0 85 170 0 85 170 0 85 170 0 85 170 0 85 170 0 85 170 0 85 170 0 85 170 0 85 170 0 